<?xml version="1.0" encoding="utf-8"?>
<!-- Generator: Adobe Illustrator 25.2.0, SVG Export Plug-In . SVG Version: 6.00 Build 0)  -->
<svg version="1.1" id="Layer_1" xmlns="http://www.w3.org/2000/svg" xmlns:xlink="http://www.w3.org/1999/xlink" x="0px" y="0px"
	 viewBox="0 0 42.7 41.8" style="enable-background:new 0 0 42.7 41.8;" xml:space="preserve">
<style type="text/css">
	.st0{fill:#FFFFFF;}
</style>
<g>
	<path class="st0" d="M36.8,16.1l-1.1-2.6c0,0,2.5-5.7,2.3-5.9l-3.3-3.2c-0.2-0.2-5.9,2.4-5.9,2.4l-2.6-1.1c0,0-2.3-5.7-2.6-5.7
		h-4.7c-0.3,0-2.5,5.7-2.5,5.7l-2.6,1.1c0,0-5.8-2.5-6-2.2L4.5,7.8C4.3,8,6.9,13.6,6.9,13.6l-1.1,2.6c0,0-5.9,2.3-5.9,2.6v4.6
		c0,0.3,5.9,2.4,5.9,2.4l1.1,2.6c0,0-2.5,5.7-2.3,5.9L8,37.4c0.2,0.2,5.9-2.4,5.9-2.4l2.6,1.1c0,0,2.3,5.7,2.6,5.7h4.7
		c0.3,0,2.5-5.7,2.5-5.7l2.6-1.1c0,0,5.8,2.5,6,2.2l3.3-3.2c0.2-0.2-2.4-5.8-2.4-5.8l1.1-2.6c0,0,5.9-2.3,5.9-2.6v-4.6
		C42.7,18.2,36.8,16.1,36.8,16.1z M21.3,27.6c-3.8,0-6.8-3-6.8-6.7c0-3.7,3.1-6.7,6.8-6.7c3.8,0,6.8,3,6.8,6.7
		C28.2,24.6,25.1,27.6,21.3,27.6z"/>
</g>
</svg>
