<?xml version="1.0" encoding="utf-8"?>
<!-- Generator: Adobe Illustrator 25.2.0, SVG Export Plug-In . SVG Version: 6.00 Build 0)  -->
<svg version="1.1" id="Layer_1" xmlns="http://www.w3.org/2000/svg" xmlns:xlink="http://www.w3.org/1999/xlink" x="0px" y="0px"
	 viewBox="0 0 40.9 41.7" style="enable-background:new 0 0 40.9 41.7;" xml:space="preserve">
<style type="text/css">
	.st0{fill:#FFFFFF;}
</style>
<g>
	<g>
		<path class="st0" d="M36.7,23.6c2.4,0,4.3-2,4.3-4.5V4.5C40.9,2,39,0,36.7,0h-5.1c-1,0-1.8,0.3-2.6,0.9v22.6H36.7z"/>
	</g>
</g>
<g>
	<g>
		<path class="st0" d="M0,16.8c0,1.1,0.4,2.1,1.1,2.9c-0.8,0.9-1.2,2.2-1.1,3.5c0.2,2.3,2.2,4.1,4.4,4.1H15
			c-0.5,1.7-1.4,4.8-1.4,7.2c0,3.9,3.1,7.2,5.1,7.2c1.8,0,3-1.1,3.1-1.1c0.2-0.2,0.3-0.4,0.3-0.7v-6.1l4.9-11.3l0.2-0.1V2.9
			c-1.4-0.7-3.1-1.1-4.3-1.1H7.4C5.5,1.8,3.9,3.1,3.5,5C3.3,5.9,3.4,6.9,3.8,7.7c-1.3,0.7-2.1,2.1-2.1,3.6c0,0.6,0.1,1.3,0.4,1.8
			C0.8,13.8,0,15.2,0,16.8z"/>
	</g>
</g>
</svg>
