<?xml version="1.0" encoding="utf-8"?>
<!-- Generator: Adobe Illustrator 25.2.0, SVG Export Plug-In . SVG Version: 6.00 Build 0)  -->
<svg version="1.1" id="Layer_1" xmlns="http://www.w3.org/2000/svg" xmlns:xlink="http://www.w3.org/1999/xlink" x="0px" y="0px"
	 viewBox="0 0 41.7 41.7" style="enable-background:new 0 0 41.7 41.7;" xml:space="preserve">
<style type="text/css">
	.st0{fill:#FFFFFF;}
</style>
<g>
	<g>
		<g>
			<path class="st0" d="M14.2,0H0.9C0.4,0,0,0.4,0,0.9v13.3c0,0.5,0.4,0.9,0.9,0.9h1.9c0.5,0,0.9-0.4,0.9-0.9V3.8h10.4
				c0.5,0,0.9-0.4,0.9-0.9V0.9C15.2,0.4,14.8,0,14.2,0z"/>
			<path class="st0" d="M40.8,0H27.5c-0.5,0-0.9,0.4-0.9,0.9v1.9c0,0.5,0.4,0.9,0.9,0.9h10.4v10.4c0,0.5,0.4,0.9,0.9,0.9h1.9
				c0.5,0,0.9-0.4,0.9-0.9V0.9C41.7,0.4,41.3,0,40.8,0z"/>
			<path class="st0" d="M40.8,26.6h-1.9c-0.5,0-0.9,0.4-0.9,0.9v10.4H27.5c-0.5,0-0.9,0.4-0.9,0.9v1.9c0,0.5,0.4,0.9,0.9,0.9h13.3
				c0.5,0,0.9-0.4,0.9-0.9V27.5C41.7,27,41.3,26.6,40.8,26.6z"/>
			<path class="st0" d="M14.2,37.9H3.8V27.5c0-0.5-0.4-0.9-0.9-0.9H0.9C0.4,26.6,0,27,0,27.5v13.3c0,0.5,0.4,0.9,0.9,0.9h13.3
				c0.5,0,0.9-0.4,0.9-0.9v-1.9C15.2,38.4,14.8,37.9,14.2,37.9z"/>
		</g>
	</g>
</g>
</svg>
