<?xml version="1.0" encoding="utf-8"?>
<!-- Generator: Adobe Illustrator 25.2.0, SVG Export Plug-In . SVG Version: 6.00 Build 0)  -->
<svg version="1.1" id="Layer_1" xmlns="http://www.w3.org/2000/svg" xmlns:xlink="http://www.w3.org/1999/xlink" x="0px" y="0px"
	 viewBox="0 0 495.4 495.4" style="enable-background:new 0 0 495.4 495.4;" xml:space="preserve">
<style type="text/css">
	.st0{fill:#B2ABC6;stroke:url(#SVGID_1_);stroke-width:18;stroke-miterlimit:10;}
	.st1{fill:#2E2E49;stroke:#000000;stroke-width:2;stroke-miterlimit:10;}
	.st2{fill:#2E2E49;}
	.st3{fill:#53527C;stroke:#000000;stroke-width:2;stroke-miterlimit:10;}
	.st4{fill:#53527C;}
</style>
<g>
	<linearGradient id="SVGID_1_" gradientUnits="userSpaceOnUse" x1="24.0955" y1="247.68" x2="471.2645" y2="247.68">
		<stop  offset="1.198083e-07" style="stop-color:#42438D"/>
		<stop  offset="1" style="stop-color:#1E1E1E"/>
	</linearGradient>
	<rect x="33.1" y="33.1" class="st0" width="429.2" height="429.2"/>
	<g id="Kid_1_1_">
		<g>
			<path class="st1" d="M263.7,286c-2.6-11-16.3-16.4-30.5-12c-3.7,1.1-7.1,2.8-10,4.9c-0.5,0.4-1.1,0.8-1.6,1.2
				c-0.1,0-0.1,0.1-0.2,0.1c-10.5,8.4-21.9,27.6-29.6,51.7c-11.4,36-10.2,69.3,2.6,74.5c12.9,5.2,32.5-19.8,44-55.7
				c4.3-13.5,6.8-26.7,7.6-38.1C258.3,307.4,266.1,296.1,263.7,286z"/>
			<path class="st1" d="M339.2,286c2.6-11,16.3-16.4,30.5-12c3.7,1.1,7.1,2.8,10,4.9c0.5,0.4,1.1,0.8,1.6,1.2c0.1,0,0.1,0.1,0.2,0.1
				c10.5,8.4,21.9,27.6,29.6,51.7c11.4,36,10.2,69.3-2.6,74.5c-12.9,5.2-32.5-19.8-44-55.7c-4.3-13.5-6.8-26.7-7.6-38.1
				C344.5,307.4,336.7,296.1,339.2,286z"/>
		</g>
		<g>
			<path class="st1" d="M376.8,452.2c1.2-11.5,1.9-23.4,1.9-35.6c0-89.8-34.6-162.7-77.2-162.7s-77.2,72.8-77.2,162.7
				c0,12.2,0.7,24.2,1.9,35.6H376.8z"/>
		</g>
		<circle class="st1" cx="301.4" cy="222.2" r="59.1"/>
		<g>
			<polygon class="st2" points="267.4,325.2 236.8,310.3 253.7,276.8 284.3,291.6 			"/>
			<polygon class="st2" points="335.3,325.2 365.9,310.3 349,276.8 318.4,291.6 			"/>
		</g>
	</g>
	<g id="Kid_2_1_">
		<g>
			<path class="st3" d="M147.6,304c-2.4-9.8-14.6-14.6-27.2-10.7c-3.3,1-6.3,2.5-8.9,4.4c-0.5,0.3-0.9,0.7-1.4,1.1
				c0,0-0.1,0.1-0.1,0.1c-9.4,7.5-19.6,24.6-26.4,46.2c-10.2,32.1-9.1,61.9,2.3,66.5c11.5,4.6,29-17.7,39.2-49.7
				c3.8-12.1,6.1-23.8,6.8-34C142.8,323.1,149.8,313,147.6,304z"/>
			<path class="st3" d="M215,304c2.4-9.8,14.6-14.6,27.2-10.7c3.3,1,6.3,2.5,8.9,4.4c0.5,0.3,0.9,0.7,1.4,1.1c0,0,0.1,0.1,0.1,0.1
				c9.4,7.5,19.6,24.6,26.4,46.2c10.2,32.1,9.1,61.9-2.3,66.5c-11.5,4.6-29-17.7-39.2-49.7c-3.8-12.1-6.1-23.8-6.8-34
				C219.7,323.1,212.8,313,215,304z"/>
		</g>
		<g>
			<path class="st3" d="M248.5,452.3c1.1-10.2,1.7-20.9,1.7-31.8c0-80.2-30.8-145.2-68.9-145.2s-68.9,65-68.9,145.2
				c0,10.9,0.6,21.6,1.7,31.8H248.5z"/>
		</g>
		<circle class="st3" cx="181.3" cy="247" r="52.8"/>
		<g>
			<polygon class="st4" points="150.9,339.5 123.6,326.1 138.7,295.8 166,309.3 			"/>
			<polygon class="st4" points="211.5,339.5 238.8,326.1 223.8,295.8 196.5,309.3 			"/>
		</g>
	</g>
</g>
</svg>
