<?xml version="1.0" encoding="utf-8"?>
<!-- Generator: Adobe Illustrator 25.2.0, SVG Export Plug-In . SVG Version: 6.00 Build 0)  -->
<svg version="1.1" id="Layer_1" xmlns="http://www.w3.org/2000/svg" xmlns:xlink="http://www.w3.org/1999/xlink" x="0px" y="0px"
	 viewBox="0 0 1930.7 1092.9" style="enable-background:new 0 0 1930.7 1092.9;" xml:space="preserve">
<style type="text/css">
	.st0{fill:url(#SVGID_1_);}
	.st1{fill:#36DD79;}
	.st2{fill:#2D7F4E;}
	.st3{fill:none;stroke:#2D7F4E;stroke-miterlimit:10;}
	.st4{fill:#FFFFFF;}
	.st5{opacity:0.75;}
	.st6{fill:#65A2D9;}
	.st7{fill:#282828;stroke:#606060;stroke-width:0.5;stroke-miterlimit:10;}
	.st8{fill:none;stroke:url(#Divider_2_);stroke-width:10;stroke-miterlimit:10;}
</style>
<linearGradient id="SVGID_1_" gradientUnits="userSpaceOnUse" x1="966.4263" y1="1094.0144" x2="966.4263" y2="-2.8367">
	<stop  offset="0" style="stop-color:#0679E7"/>
	<stop  offset="1" style="stop-color:#91A9CB"/>
</linearGradient>
<rect x="1.1" y="-2.8" class="st0" width="1930.7" height="1096.9"/>
<path class="st1" d="M1933.4,631.8c-13.7-10.5-30.8-16.7-49.4-16.7c-44.9,0-81.4,36.4-81.4,81.4c0,44.9,36.4,81.4,81.4,81.4
	c18.6,0,35.7-6.2,49.4-16.7V631.8z"/>
<path class="st1" d="M1680.5,1002.8c0-73.3-59.4-132.8-132.8-132.8c-73.3,0-132.8,59.5-132.8,132.8s60.9,132.8,134.2,132.8
	S1680.5,1076.2,1680.5,1002.8z"/>
<circle class="st1" cx="1773.7" cy="761.1" r="111.6"/>
<circle class="st1" cx="1646" cy="848" r="145.5"/>
<rect x="1620.4" y="749.7" class="st1" width="312.4" height="346.8"/>
<g>
	<path class="st2" d="M1718.8,755c6.5,1,13.1,0.9,19.5-0.1c6.4-1.1,12.7-3,18.6-5.8c5.9-2.8,11.3-6.5,16.1-10.8
		c4.8-4.3,9-9.4,12.2-15.1l0.4-0.7l0.4,0.6c1.2,1.8,3.3,2.9,5.5,3.4c2.2,0.5,4.5,0.6,6.9,0.6c4.7,0,9.3-0.2,13.9-0.8
		c9.2-1.2,18.3-3.9,26.5-8.3c8.2-4.4,15.4-10.7,20.8-18.3c5.3-7.6,8.9-16.6,9.4-26c-0.3,9.4-3.7,18.5-8.9,26.3
		c-5.3,7.8-12.5,14.2-20.8,18.7c-8.3,4.5-17.5,7.2-26.8,8.5c-4.7,0.6-9.4,0.9-14.1,0.8c-2.3,0-4.7-0.1-7.1-0.7
		c-2.3-0.5-4.7-1.7-6.1-3.8l0.8,0c-3.3,5.7-7.5,10.9-12.4,15.2c-4.9,4.4-10.5,8-16.4,10.8c-5.9,2.8-12.3,4.7-18.8,5.6
		C1731.9,756.2,1725.3,756.1,1718.8,755z"/>
</g>
<path class="st3" d="M1511.3,929.7c22.8,4.1,47.5-10.6,54.8-32.6c30.1,0.1,59.7-17.2,74.3-43.6"/>
<path class="st3" d="M1754,878.5c10,0.5,20.2-1.7,28.5-7.3c8.3-5.6,14.3-14.7,15.1-24.7c11.3,3.9,24.2,2.5,34.4-3.6
	s17.5-16.9,19.5-28.6"/>
<path class="st3" d="M1651.8,1045.3c9,2.1,18.8,0.3,26.5-4.9c7.7-5.1,13.2-13.5,14.7-22.6c22.4,4.6,47-9.9,53.8-31.7"/>
<path class="st4" d="M1664,111.8"/>
<g>
	<g class="st5">
		<path d="M1862.2,1102.5"/>
	</g>
	<g>
		<g>
			<g id="Twiter_10_">
				<path class="st6" d="M1859.2,1099.5"/>
			</g>
		</g>
	</g>
</g>
<path class="st4" d="M1936.6,131.9"/>
<path class="st7" d="M1873.1,110.5"/>
<linearGradient id="Divider_2_" gradientUnits="userSpaceOnUse" x1="1936.639" y1="132.0999" x2="1936.639" y2="132.0999">
	<stop  offset="1.198083e-07" style="stop-color:#662D91"/>
	<stop  offset="1" style="stop-color:#000000"/>
</linearGradient>
<path id="Divider_1_" class="st8" d="M1936.6,132.1"/>
</svg>
