<?xml version="1.0" encoding="utf-8"?>
<!-- Generator: Adobe Illustrator 25.2.0, SVG Export Plug-In . SVG Version: 6.00 Build 0)  -->
<svg version="1.1" id="Layer_1" xmlns="http://www.w3.org/2000/svg" xmlns:xlink="http://www.w3.org/1999/xlink" x="0px" y="0px"
	 viewBox="0 0 40.9 41.7" style="enable-background:new 0 0 40.9 41.7;" xml:space="preserve">
<style type="text/css">
	.st0{fill:#FFFFFF;}
</style>
<g>
	<g>
		<path class="st0" d="M4.3,18.1c-2.4,0-4.3,2-4.3,4.5v14.5c0,2.5,1.9,4.5,4.3,4.5h5.1c1,0,1.8-0.3,2.6-0.9V18.1H4.3z"/>
	</g>
</g>
<g>
	<g>
		<path class="st0" d="M40.9,24.9c0-1.1-0.4-2.1-1.1-2.9c0.8-0.9,1.2-2.2,1.1-3.5c-0.2-2.3-2.2-4.1-4.4-4.1H25.9
			c0.5-1.7,1.4-4.8,1.4-7.2c0-3.9-3.1-7.2-5.1-7.2c-1.8,0-3,1.1-3.1,1.1c-0.2,0.2-0.3,0.4-0.3,0.7V8l-4.9,11.3l-0.2,0.1v19.4
			c1.4,0.7,3.1,1.1,4.3,1.1h15.7c1.9,0,3.5-1.3,3.9-3.2c0.2-0.9,0.1-1.9-0.3-2.7c1.3-0.7,2.1-2.1,2.1-3.6c0-0.6-0.1-1.3-0.4-1.8
			C40.1,27.9,40.9,26.5,40.9,24.9z"/>
	</g>
</g>
</svg>
