<?xml version="1.0" encoding="utf-8"?>
<!-- Generator: Adobe Illustrator 25.2.0, SVG Export Plug-In . SVG Version: 6.00 Build 0)  -->
<svg version="1.1" id="Layer_1" xmlns="http://www.w3.org/2000/svg" xmlns:xlink="http://www.w3.org/1999/xlink" x="0px" y="0px"
	 viewBox="0 0 67.5 35.5" style="enable-background:new 0 0 67.5 35.5;" xml:space="preserve">
<style type="text/css">
	.st0{fill:#282828;stroke:#606060;stroke-width:0.5;stroke-miterlimit:10;}
</style>
<g>
	<path class="st0" d="M66.3,20.4H1.2c-0.5,0-1-0.4-1-1v-3.3c0-0.5,0.4-1,1-1h65.1c0.5,0,1,0.4,1,1v3.3
		C67.3,19.9,66.9,20.4,66.3,20.4z"/>
	<path class="st0" d="M66.3,35.2H1.2c-0.5,0-1-0.4-1-1v-3.3c0-0.5,0.4-1,1-1h65.1c0.5,0,1,0.4,1,1v3.3
		C67.3,34.8,66.9,35.2,66.3,35.2z"/>
	<path class="st0" d="M66.3,5.5H1.2c-0.5,0-1-0.4-1-1V1.2c0-0.5,0.4-1,1-1h65.1c0.5,0,1,0.4,1,1v3.3C67.3,5.1,66.9,5.5,66.3,5.5z"/>
</g>
</svg>
