<?xml version="1.0" encoding="utf-8"?>
<!-- Generator: Adobe Illustrator 25.2.0, SVG Export Plug-In . SVG Version: 6.00 Build 0)  -->
<svg version="1.1" id="Layer_1" xmlns="http://www.w3.org/2000/svg" xmlns:xlink="http://www.w3.org/1999/xlink" x="0px" y="0px"
	 viewBox="0 0 119.5 119.5" style="enable-background:new 0 0 119.5 119.5;" xml:space="preserve">
<style type="text/css">
	.st0{fill:url(#SVGID_1_);}
	.st1{fill:#FFFFFF;}
</style>
<g>
	
		<linearGradient id="SVGID_1_" gradientUnits="userSpaceOnUse" x1="768.4468" y1="-1447.5266" x2="887.9041" y2="-1447.5266" gradientTransform="matrix(0 1 -1 0 -1387.798 -768.4468)">
		<stop  offset="0" style="stop-color:#431781"/>
		<stop  offset="1" style="stop-color:#001D4D"/>
	</linearGradient>
	<circle class="st0" cx="59.7" cy="59.7" r="59.7"/>
	<path class="st1" d="M101.2,58.3c0-22.9-18.6-41.5-41.5-41.5S18.3,35.4,18.3,58.3s18.6,41.5,41.5,41.5h30.8v-6.9h-7.9
		C94.2,85.2,101.2,72.2,101.2,58.3z M80,86.3c-4.6,3.4-11.1,2.3-14.5-2.3c-3.4-4.6-2.3-11.1,2.3-14.5c4.6-3.4,11.1-2.3,14.5,2.3
		C85.7,76.4,84.7,82.9,80,86.3z M79.5,41c5.4-1.8,11.3,1.2,13.1,6.7c1.8,5.4-1.2,11.3-6.7,13.1c-5.4,1.8-11.3-1.2-13.1-6.7
		C71.1,48.6,74.1,42.8,79.5,41z M59.7,23.8c5.7,0,10.4,4.6,10.4,10.4s-4.6,10.4-10.4,10.4s-10.4-4.6-10.4-10.4S54,23.8,59.7,23.8z
		 M26.9,47.6c1.8-5.4,7.6-8.4,13.1-6.7c5.4,1.8,8.4,7.6,6.7,13.1c-1.8,5.4-7.6,8.4-13.1,6.7C28.1,58.9,25.1,53.1,26.9,47.6z
		 M53.9,84c-3.4,4.6-9.8,5.7-14.5,2.3c-4.6-3.4-5.7-9.8-2.3-14.5c3.4-4.6,9.8-5.7,14.5-2.3C56.2,72.9,57.3,79.4,53.9,84z M56.3,58.3
		c0-1.9,1.5-3.5,3.5-3.5s3.5,1.5,3.5,3.5s-1.5,3.5-3.5,3.5S56.3,60.2,56.3,58.3z"/>
</g>
</svg>
