<?xml version="1.0" encoding="utf-8"?>
<!-- Generator: Adobe Illustrator 25.2.0, SVG Export Plug-In . SVG Version: 6.00 Build 0)  -->
<svg version="1.1" id="Layer_1" xmlns="http://www.w3.org/2000/svg" xmlns:xlink="http://www.w3.org/1999/xlink" x="0px" y="0px"
	 viewBox="0 0 119.5 119.5" style="enable-background:new 0 0 119.5 119.5;" xml:space="preserve">
<style type="text/css">
	.st0{fill:url(#SVGID_1_);}
	.st1{fill:#FFFFFF;}
</style>
<g>
	
		<linearGradient id="SVGID_1_" gradientUnits="userSpaceOnUse" x1="1415.6809" y1="-1805.9948" x2="1535.1382" y2="-1805.9948" gradientTransform="matrix(0 1 -1 0 -1746.2661 -1415.6809)">
		<stop  offset="0" style="stop-color:#0031AA"/>
		<stop  offset="1" style="stop-color:#277D83"/>
	</linearGradient>
	<circle class="st0" cx="59.7" cy="59.7" r="59.7"/>
	<g>
		<path class="st1" d="M50.7,37.6c-6.7,0-12.1,5.4-12.1,12.1S44,61.9,50.7,61.9s12.1-5.4,12.1-12.1S57.3,37.6,50.7,37.6z M50.7,54.6
			c-2.7,0-4.9-2.2-4.9-4.9c0-2.7,2.2-4.9,4.9-4.9c2.7,0,4.9,2.2,4.9,4.9C55.5,52.5,53.3,54.6,50.7,54.6z"/>
		<path class="st1" d="M99.4,57.1c-0.6-0.5-1.4-0.6-2.1-0.4l-25.9,6.5c-1.1,0.3-1.8,1.2-1.8,2.4v19.8c-0.8-0.3-1.6-0.4-2.4-0.4
			c-4,0-7.3,3.3-7.3,7.3c0,4,3.3,7.3,7.3,7.3c4,0,7.3-3.3,7.3-7.3V74.6l21-5.3v12.8c-0.8-0.3-1.6-0.4-2.4-0.4c-4,0-7.3,3.3-7.3,7.3
			c0,4,3.3,7.3,7.3,7.3c4,0,7.3-3.3,7.3-7.3V59C100.3,58.3,100,57.5,99.4,57.1L99.4,57.1z"/>
		<path class="st1" d="M70.2,58.4l13.1-3.3c0.3-1.8,0.4-3.5,0.4-5.3c0-18.3-14.9-33.2-33.2-33.2c-18.3,0-33.2,14.9-33.2,33.2
			s14.9,33.2,33.2,33.2c4.9,0,9.7-1.1,14.1-3.1V65.5C64.7,62.1,67,59.2,70.2,58.4L70.2,58.4z M50.7,66.8c-9.4,0-17-7.6-17-17
			s7.6-17,17-17s17,7.6,17,17S60,66.8,50.7,66.8L50.7,66.8z"/>
	</g>
</g>
</svg>
