<?xml version="1.0" encoding="utf-8"?>
<!-- Generator: Adobe Illustrator 25.2.0, SVG Export Plug-In . SVG Version: 6.00 Build 0)  -->
<svg version="1.1" id="Layer_1" xmlns="http://www.w3.org/2000/svg" xmlns:xlink="http://www.w3.org/1999/xlink" x="0px" y="0px"
	 viewBox="0 0 495.4 495.4" style="enable-background:new 0 0 495.4 495.4;" xml:space="preserve">
<style type="text/css">
	.st0{fill:#B2ABC6;}
	.st1{fill:none;stroke:url(#SVGID_1_);stroke-width:18;stroke-miterlimit:10;}
	.st2{fill:#5D4C72;stroke:#000000;stroke-width:2;stroke-miterlimit:10;}
	.st3{fill:#5D4C72;}
</style>
<g>
	
		<image style="overflow:visible;opacity:0.75;" width="2064" height="2064" xlink:href="AF2E30D3.png"  transform="matrix(0.24 0 0 0.24 0 0)">
	</image>
	<g>
		<rect x="33.1" y="33" class="st0" width="429.2" height="429.2"/>
		<linearGradient id="SVGID_1_" gradientUnits="userSpaceOnUse" x1="24.0765" y1="247.6335" x2="471.2455" y2="247.6335">
			<stop  offset="1.198083e-07" style="stop-color:#662D91"/>
			<stop  offset="1" style="stop-color:#1E1E1E"/>
		</linearGradient>
		<rect x="33.1" y="33" class="st1" width="429.2" height="429.2"/>
	</g>
</g>
<g id="Parent_3_">
	<g>
		<path class="st2" d="M204.1,260.5c-3-12.7-18.8-18.9-35.2-13.9c-4.3,1.3-8.2,3.3-11.5,5.6c-0.6,0.4-1.2,0.9-1.8,1.4
			c-0.1,0-0.1,0.1-0.2,0.1c-12.2,9.7-25.3,31.8-34.1,59.6c-13.2,41.5-11.8,79.9,3,85.9c14.8,6,37.5-22.8,50.7-64.3
			c4.9-15.6,7.8-30.8,8.7-43.9C198,285.2,206.9,272.2,204.1,260.5z"/>
		<path class="st2" d="M291.2,260.5c3-12.7,18.8-18.9,35.2-13.9c4.3,1.3,8.2,3.3,11.5,5.6c0.6,0.4,1.2,0.9,1.8,1.4
			c0.1,0,0.1,0.1,0.2,0.1c12.2,9.7,25.3,31.8,34.1,59.6c13.2,41.5,11.8,79.9-3,85.9c-14.8,6-37.5-22.8-50.7-64.3
			c-4.9-15.6-7.8-30.8-8.7-43.9C297.3,285.2,288.4,272.2,291.2,260.5z"/>
	</g>
	<g>
		<path class="st2" d="M334.5,452.2c1.4-13.2,2.2-27,2.2-41.1c0-103.6-39.9-187.6-89-187.6s-89,84-89,187.6
			c0,14.1,0.8,27.9,2.2,41.1H334.5z"/>
	</g>
	<circle class="st2" cx="247.7" cy="186.9" r="68.2"/>
	<g>
		<polygon class="st3" points="208.4,306.5 173.2,289.4 192.6,251 227.9,268.1 		"/>
		<polygon class="st3" points="286.7,306.5 322,289.4 302.5,251 267.3,268.1 		"/>
	</g>
</g>
</svg>
