<?xml version="1.0" encoding="utf-8"?>
<!-- Generator: Adobe Illustrator 25.2.0, SVG Export Plug-In . SVG Version: 6.00 Build 0)  -->
<svg version="1.1" id="Layer_1" xmlns="http://www.w3.org/2000/svg" xmlns:xlink="http://www.w3.org/1999/xlink" x="0px" y="0px"
	 viewBox="0 0 62.3 62.5" style="enable-background:new 0 0 62.3 62.5;" xml:space="preserve">
<style type="text/css">
	.st0{fill:#FFFFFF;stroke:url(#SVGID_1_);stroke-width:2;stroke-miterlimit:10;}
</style>
<g>
	<g>
		<linearGradient id="SVGID_1_" gradientUnits="userSpaceOnUse" x1="31.1517" y1="0" x2="31.1517" y2="62.5299">
			<stop  offset="0" style="stop-color:#277D83"/>
			<stop  offset="1" style="stop-color:#001D4D"/>
		</linearGradient>
		<path class="st0" d="M59.3,48.7l-10-10c1.8-3.6,3-7.8,3-12.1C52.3,12.5,40.9,1,26.7,1S1,12.5,1,26.7s11.5,25.7,25.7,25.7
			c4.2,0,8.5-1.2,12.1-3l10,10c3,3,7.5,3,10.6,0C62,56.2,62,51.7,59.3,48.7z M26.7,46.3C15.8,46.3,7,37.5,7,26.7S15.8,7,26.7,7
			s19.6,8.8,19.6,19.6S37.5,46.3,26.7,46.3z"/>
	</g>
</g>
</svg>
