<?xml version="1.0" encoding="utf-8"?>
<!-- Generator: Adobe Illustrator 25.2.0, SVG Export Plug-In . SVG Version: 6.00 Build 0)  -->
<svg version="1.1" id="Layer_1" xmlns="http://www.w3.org/2000/svg" xmlns:xlink="http://www.w3.org/1999/xlink" x="0px" y="0px"
	 viewBox="0 0 60.1 58.9" style="enable-background:new 0 0 60.1 58.9;" xml:space="preserve">
<style type="text/css">
	.st0{fill:#282828;stroke:#606060;stroke-width:0.5;stroke-miterlimit:10;}
</style>
<g>
	<path class="st0" d="M51.7,22.7l-1.5-3.6c0,0,3.5-7.9,3.2-8.2l-4.6-4.5c-0.3-0.3-8.2,3.3-8.2,3.3l-3.6-1.5c0,0-3.2-8-3.7-8h-6.5
		c-0.5,0-3.4,8-3.4,8l-3.6,1.5c0,0-8.1-3.4-8.4-3.1l-4.6,4.5c-0.3,0.3,3.4,8.1,3.4,8.1l-1.5,3.6c0,0-8.2,3.1-8.2,3.6v6.4
		c0,0.4,8.2,3.4,8.2,3.4l1.5,3.6c0,0-3.5,7.9-3.2,8.2l4.6,4.5c0.3,0.3,8.2-3.3,8.2-3.3l3.6,1.5c0,0,3.2,8,3.7,8h6.5
		c0.5,0,3.4-8,3.4-8l3.6-1.5c0,0,8.1,3.4,8.4,3.1l4.6-4.5c0.3-0.3-3.4-8-3.4-8l1.5-3.6c0,0,8.2-3.2,8.2-3.6v-6.4
		C59.9,25.7,51.7,22.7,51.7,22.7z M30.1,38.8c-5.3,0-9.6-4.2-9.6-9.4c0-5.2,4.3-9.3,9.6-9.3c5.3,0,9.6,4.2,9.6,9.3
		C39.6,34.6,35.3,38.8,30.1,38.8z"/>
</g>
</svg>
