<?xml version="1.0" encoding="utf-8"?>
<!-- Generator: Adobe Illustrator 25.2.0, SVG Export Plug-In . SVG Version: 6.00 Build 0)  -->
<svg version="1.1" id="Layer_1" xmlns="http://www.w3.org/2000/svg" xmlns:xlink="http://www.w3.org/1999/xlink" x="0px" y="0px"
	 viewBox="0 0 119.5 119.5" style="enable-background:new 0 0 119.5 119.5;" xml:space="preserve">
<style type="text/css">
	.st0{fill:url(#SVGID_1_);}
	.st1{fill:#FFFFFF;}
</style>
<g>
	
		<linearGradient id="SVGID_1_" gradientUnits="userSpaceOnUse" x1="768.4468" y1="-1447.5266" x2="887.9041" y2="-1447.5266" gradientTransform="matrix(0 1 -1 0 -1387.798 -768.4468)">
		<stop  offset="1.198083e-07" style="stop-color:#431781"/>
		<stop  offset="1" style="stop-color:#001D4D"/>
	</linearGradient>
	<circle class="st0" cx="59.7" cy="59.7" r="59.7"/>
	<g>
		<g>
			<path class="st1" d="M95.5,32.4H69.6l9.2-15.1c0.8-1.3,0.4-3-0.9-3.8c-1.3-0.8-3-0.4-3.8,0.9l-10.9,18h-6.8l-10.9-18
				c-0.8-1.3-2.5-1.7-3.8-0.9c-1.3,0.8-1.7,2.5-0.9,3.8l9.2,15.1H24c-3.3,0-6.1,2.7-6.1,6.1v50.1c0,3.3,2.7,6.1,6.1,6.1h71.5
				c3.3,0,6.1-2.7,6.1-6.1V38.5C101.6,35.1,98.8,32.4,95.5,32.4z M76.6,81.3c0,1.8-1.5,3.3-3.3,3.3H31c-1.8,0-3.3-1.5-3.3-3.3V45.8
				c0-1.8,1.5-3.3,3.3-3.3h42.2c1.8,0,3.3,1.5,3.3,3.3V81.3z M88.9,76.9c-2.4,0-4.4-2-4.4-4.4c0-2.4,2-4.4,4.4-4.4
				c2.4,0,4.4,2,4.4,4.4C93.4,74.9,91.4,76.9,88.9,76.9z M88.9,59.8c-2.4,0-4.4-2-4.4-4.4c0-2.4,2-4.4,4.4-4.4c2.4,0,4.4,2,4.4,4.4
				C93.4,57.8,91.4,59.8,88.9,59.8z"/>
		</g>
	</g>
</g>
</svg>
