<?xml version="1.0" encoding="utf-8"?>
<!-- Generator: Adobe Illustrator 25.2.0, SVG Export Plug-In . SVG Version: 6.00 Build 0)  -->
<svg version="1.1" id="Layer_1" xmlns="http://www.w3.org/2000/svg" xmlns:xlink="http://www.w3.org/1999/xlink" x="0px" y="0px"
	 viewBox="0 0 91.8 91.8" style="enable-background:new 0 0 91.8 91.8;" xml:space="preserve">
<style type="text/css">
	.st0{fill:#282828;stroke:#606060;stroke-width:0.5;stroke-miterlimit:10;}
	.st1{fill:#CCCCCC;stroke:#000000;stroke-width:0.5;stroke-miterlimit:10;}
	.st2{fill:#CCCCCC;}
	.st3{fill:#FFFFFF;stroke:#000000;stroke-width:0.5;stroke-miterlimit:10;}
	.st4{fill:#FFFFFF;}
</style>
<circle class="st0" cx="45.9" cy="45.9" r="45.7"/>
<g>
	<g id="Kid_1_2_">
		<g>
			<path class="st1" d="M49.2,41.4c-0.5-2.3-3.4-3.4-6.3-2.5c-0.8,0.2-1.5,0.6-2.1,1c-0.1,0.1-0.2,0.2-0.3,0.2c0,0,0,0,0,0
				c-2.2,1.8-4.6,5.7-6.1,10.7c-2.4,7.5-2.1,14.4,0.5,15.5c2.7,1.1,6.8-4.1,9.1-11.6c0.9-2.8,1.4-5.5,1.6-7.9
				C48.1,45.9,49.7,43.5,49.2,41.4z"/>
			<path class="st1" d="M64.9,41.4c0.5-2.3,3.4-3.4,6.3-2.5c0.8,0.2,1.5,0.6,2.1,1c0.1,0.1,0.2,0.2,0.3,0.2c0,0,0,0,0,0
				c2.2,1.8,4.6,5.7,6.1,10.7c2.4,7.5,2.1,14.4-0.5,15.5c-2.7,1.1-6.8-4.1-9.1-11.6c-0.9-2.8-1.4-5.5-1.6-7.9
				C66,45.9,64.4,43.5,64.9,41.4z"/>
		</g>
		<g>
			<path class="st1" d="M72.7,75.9c0.3-2.4,0.4-4.9,0.4-7.4c0-18.7-7.2-33.8-16-33.8S41,49.9,41,68.5c0,2.5,0.1,5,0.4,7.4H72.7z"/>
		</g>
		<circle class="st1" cx="57.1" cy="28.2" r="12.3"/>
		<g>
			<rect x="45" y="40.6" transform="matrix(0.8961 0.4439 -0.4439 0.8961 24.8397 -16.935)" class="st2" width="7.1" height="7.9"/>
			
				<rect x="62" y="40.6" transform="matrix(-0.8961 0.4439 -0.4439 -0.8961 144.0607 55.4558)" class="st2" width="7.1" height="7.9"/>
		</g>
	</g>
	<g id="Kid_2_2_">
		<g>
			<path class="st3" d="M25.1,45.2c-0.5-2-3-3-5.7-2.2c-0.7,0.2-1.3,0.5-1.9,0.9c-0.1,0.1-0.2,0.1-0.3,0.2c0,0,0,0,0,0
				c-2,1.6-4.1,5.1-5.5,9.6c-2.1,6.7-1.9,12.8,0.5,13.8c2.4,1,6-3.7,8.1-10.3c0.8-2.5,1.3-4.9,1.4-7.1C24.2,49.1,25.6,47,25.1,45.2z
				"/>
			<path class="st3" d="M39.1,45.2c0.5-2,3-3,5.7-2.2c0.7,0.2,1.3,0.5,1.9,0.9c0.1,0.1,0.2,0.1,0.3,0.2c0,0,0,0,0,0
				c2,1.6,4.1,5.1,5.5,9.6c2.1,6.7,1.9,12.8-0.5,13.8c-2.4,1-6-3.7-8.1-10.3c-0.8-2.5-1.3-4.9-1.4-7.1C40.1,49.1,38.7,47,39.1,45.2z
				"/>
		</g>
		<g>
			<path class="st3" d="M46.1,76c0.2-2.1,0.3-4.3,0.3-6.6c0-16.6-6.4-30.1-14.3-30.1S17.8,52.7,17.8,69.3c0,2.3,0.1,4.5,0.3,6.6
				H46.1z"/>
		</g>
		<circle class="st3" cx="32.1" cy="33.3" r="11"/>
		<g>
			
				<rect x="21.4" y="44.5" transform="matrix(0.8961 0.4439 -0.4439 0.8961 23.8474 -5.9187)" class="st4" width="6.3" height="7.1"/>
			
				<rect x="36.5" y="44.5" transform="matrix(-0.8961 0.4439 -0.4439 -0.8961 96.5474 73.3552)" class="st4" width="6.3" height="7.1"/>
		</g>
	</g>
</g>
</svg>
