<?xml version="1.0" encoding="utf-8"?>
<!-- Generator: Adobe Illustrator 25.2.0, SVG Export Plug-In . SVG Version: 6.00 Build 0)  -->
<svg version="1.1" id="Layer_1" xmlns="http://www.w3.org/2000/svg" xmlns:xlink="http://www.w3.org/1999/xlink" x="0px" y="0px"
	 viewBox="0 0 91.8 91.8" style="enable-background:new 0 0 91.8 91.8;" xml:space="preserve">
<style type="text/css">
	.st0{fill:#282828;stroke:#606060;stroke-width:0.5;stroke-miterlimit:10;}
	.st1{fill:#FFFFFF;stroke:#000000;stroke-width:0.5;stroke-miterlimit:10;}
	.st2{fill:#FFFFFF;}
</style>
<circle class="st0" cx="45.9" cy="45.9" r="45.6"/>
<g id="Parent_1_">
	<g>
		<path class="st1" d="M37.6,41.1c-0.6-2.4-3.6-3.6-6.7-2.7c-0.8,0.2-1.6,0.6-2.2,1.1c-0.1,0.1-0.2,0.2-0.4,0.3c0,0,0,0,0,0
			c-2.3,1.9-4.8,6.1-6.5,11.4c-2.5,7.9-2.3,15.3,0.6,16.4c2.8,1.1,7.2-4.4,9.7-12.3c0.9-3,1.5-5.9,1.7-8.4
			C36.4,45.8,38.1,43.3,37.6,41.1z"/>
		<path class="st1" d="M54.2,41.1c0.6-2.4,3.6-3.6,6.7-2.7c0.8,0.2,1.6,0.6,2.2,1.1c0.1,0.1,0.2,0.2,0.4,0.3c0,0,0,0,0,0
			c2.3,1.9,4.8,6.1,6.5,11.4c2.5,7.9,2.3,15.3-0.6,16.4c-2.8,1.1-7.2-4.4-9.7-12.3c-0.9-3-1.5-5.9-1.7-8.4
			C55.4,45.8,53.7,43.3,54.2,41.1z"/>
	</g>
	<g>
		<path class="st1" d="M62.5,77.7c0.3-2.5,0.4-5.2,0.4-7.9c0-19.8-7.6-35.8-17-35.8s-17,16-17,35.8c0,2.7,0.1,5.3,0.4,7.9H62.5z"/>
	</g>
	<circle class="st1" cx="45.9" cy="27.1" r="13"/>
	<g>
		
			<rect x="33.1" y="40.3" transform="matrix(0.8961 0.4439 -0.4439 0.8961 23.5723 -11.7475)" class="st2" width="7.5" height="8.4"/>
		
			<rect x="51.1" y="40.3" transform="matrix(-0.8961 0.4439 -0.4439 -0.8961 123.7626 59.9808)" class="st2" width="7.5" height="8.4"/>
	</g>
</g>
</svg>
